<svg xmlns="http://www.w3.org/2000/svg" width="1400" height="760" viewBox="0 0 1400 760" role="img" aria-label="ZipShop dashboard preview">
  <rect width="1400" height="760" rx="22" fill="#ececef"/>
  <rect x="20" y="20" width="1360" height="72" rx="18" fill="#f7f7f9"/>
  <rect x="1020" y="36" width="170" height="38" rx="18" fill="#e7e7f7"/>
  <rect x="1038" y="47" width="132" height="16" rx="8" fill="#6f66c2" opacity=".8"/>
  <g fill="#2e2a66" opacity=".8">
    <rect x="820" y="47" width="74" height="14" rx="7"/>
    <rect x="720" y="47" width="74" height="14" rx="7"/>
    <rect x="620" y="47" width="74" height="14" rx="7"/>
    <rect x="520" y="47" width="74" height="14" rx="7"/>
  </g>
  <rect x="30" y="122" width="1340" height="105" rx="18" fill="#f7f7f9"/>
  <rect x="50" y="172" width="130" height="38" rx="12" fill="#6f66c2"/>
  <rect x="215" y="139" width="160" height="16" rx="8" fill="#c9c8d2"/>
  <rect x="400" y="139" width="180" height="16" rx="8" fill="#c9c8d2"/>
  <rect x="605" y="139" width="120" height="16" rx="8" fill="#c9c8d2"/>
  <rect x="748" y="139" width="120" height="16" rx="8" fill="#c9c8d2"/>
  <rect x="910" y="139" width="380" height="16" rx="8" fill="#c9c8d2"/>
  <rect x="30" y="245" width="1340" height="430" rx="18" fill="#f7f7f9"/>
  <g opacity=".95">
    <rect x="70" y="280" width="160" height="16" rx="8" fill="#d8d7dd"/>
    <rect x="250" y="280" width="170" height="16" rx="8" fill="#d8d7dd"/>
    <rect x="460" y="280" width="170" height="16" rx="8" fill="#d8d7dd"/>
    <rect x="690" y="280" width="140" height="16" rx="8" fill="#d8d7dd"/>
    <rect x="860" y="280" width="270" height="16" rx="8" fill="#d8d7dd"/>
    <rect x="1160" y="280" width="180" height="16" rx="8" fill="#d8d7dd"/>
  </g>
  <g>
    <rect x="70" y="328" width="1260" height="1" fill="#ecebef"/>
    <rect x="70" y="380" width="1260" height="1" fill="#ecebef"/>
    <rect x="70" y="432" width="1260" height="1" fill="#ecebef"/>
    <rect x="70" y="484" width="1260" height="1" fill="#ecebef"/>
    <rect x="70" y="536" width="1260" height="1" fill="#ecebef"/>
  </g>
  <g fill="#bbb9c5">
    <rect x="90" y="345" width="120" height="22" rx="11"/>
    <rect x="245" y="345" width="150" height="22" rx="11"/>
    <rect x="455" y="345" width="150" height="22" rx="11"/>
    <rect x="685" y="345" width="120" height="22" rx="11"/>
    <rect x="860" y="345" width="250" height="22" rx="11"/>
    <rect x="1180" y="345" width="120" height="22" rx="11"/>
  </g>
  <g fill="#bbb9c5" opacity=".8">
    <rect x="90" y="397" width="120" height="22" rx="11"/>
    <rect x="245" y="397" width="150" height="22" rx="11"/>
    <rect x="455" y="397" width="150" height="22" rx="11"/>
    <rect x="685" y="397" width="120" height="22" rx="11"/>
    <rect x="860" y="397" width="250" height="22" rx="11"/>
    <rect x="1180" y="397" width="120" height="22" rx="11"/>
  </g>
  <g fill="#bbb9c5" opacity=".7">
    <rect x="90" y="449" width="120" height="22" rx="11"/>
    <rect x="245" y="449" width="150" height="22" rx="11"/>
    <rect x="455" y="449" width="150" height="22" rx="11"/>
    <rect x="685" y="449" width="120" height="22" rx="11"/>
    <rect x="860" y="449" width="250" height="22" rx="11"/>
    <rect x="1180" y="449" width="120" height="22" rx="11"/>
  </g>
  <rect x="30" y="688" width="1340" height="52" rx="16" fill="#f7f7f9"/>
  <rect x="1240" y="688" width="130" height="52" rx="16" fill="#6f66c2"/>
</svg>
